<mxfile host="app.diagrams.net" modified="2023-01-23T20:13:10.984Z" agent="5.0 (Macintosh; Intel Mac OS X 10_15_7) AppleWebKit/605.1.15 (KHTML, like Gecko) Version/16.0 Safari/605.1.15" etag="skaU7JRggCAqZLzOiCz2" version="20.8.10" type="github">
  <diagram name="Page-1" id="16e2658f-23c8-b752-8be9-c03fbebb8bbe">
    <mxGraphModel dx="1177" dy="736" grid="1" gridSize="10" guides="1" tooltips="1" connect="1" arrows="1" fold="1" page="1" pageScale="1" pageWidth="1100" pageHeight="850" background="none" math="0" shadow="0">
      <root>
        <mxCell id="0" />
        <mxCell id="1" parent="0" />
        <mxCell id="cpb8KidzNTr9j0mLhtTO-1" value="" style="verticalLabelPosition=bottom;shadow=0;dashed=0;align=center;html=1;verticalAlign=top;shape=mxgraph.electrical.abstract.operational_amp_1;" vertex="1" parent="1">
          <mxGeometry x="280" y="230" width="98" height="90" as="geometry" />
        </mxCell>
        <mxCell id="cpb8KidzNTr9j0mLhtTO-2" value="" style="pointerEvents=1;verticalLabelPosition=bottom;shadow=0;dashed=0;align=center;html=1;verticalAlign=top;shape=mxgraph.electrical.resistors.resistor_1;rotation=90;" vertex="1" parent="1">
          <mxGeometry x="160" y="350" width="100" height="20" as="geometry" />
        </mxCell>
        <mxCell id="cpb8KidzNTr9j0mLhtTO-3" value="" style="pointerEvents=1;verticalLabelPosition=bottom;shadow=0;dashed=0;align=center;html=1;verticalAlign=top;shape=mxgraph.electrical.resistors.resistor_1;rotation=90;" vertex="1" parent="1">
          <mxGeometry x="160" y="160" width="100" height="20" as="geometry" />
        </mxCell>
        <mxCell id="cpb8KidzNTr9j0mLhtTO-4" value="V&lt;sub&gt;dd&lt;/sub&gt;" style="verticalLabelPosition=top;verticalAlign=bottom;shape=mxgraph.electrical.signal_sources.vdd;shadow=0;dashed=0;align=center;strokeWidth=1;fontSize=24;html=1;flipV=1;" vertex="1" parent="1">
          <mxGeometry x="210" y="60" width="60" height="40" as="geometry" />
        </mxCell>
        <mxCell id="cpb8KidzNTr9j0mLhtTO-5" value="V&lt;sub&gt;ss&lt;/sub&gt;" style="pointerEvents=1;verticalLabelPosition=bottom;shadow=0;dashed=0;align=center;html=1;verticalAlign=top;shape=mxgraph.electrical.signal_sources.vss2;fontSize=24;flipV=1;" vertex="1" parent="1">
          <mxGeometry x="240" y="440" width="60" height="40" as="geometry" />
        </mxCell>
        <mxCell id="cpb8KidzNTr9j0mLhtTO-6" value="" style="endArrow=none;html=1;rounded=0;exitX=1;exitY=0.5;exitDx=0;exitDy=0;exitPerimeter=0;entryX=0.5;entryY=1;entryDx=0;entryDy=0;entryPerimeter=0;" edge="1" parent="1" source="cpb8KidzNTr9j0mLhtTO-2" target="cpb8KidzNTr9j0mLhtTO-5">
          <mxGeometry width="50" height="50" relative="1" as="geometry">
            <mxPoint x="530" y="440" as="sourcePoint" />
            <mxPoint x="580" y="390" as="targetPoint" />
            <Array as="points">
              <mxPoint x="210" y="440" />
            </Array>
          </mxGeometry>
        </mxCell>
        <mxCell id="cpb8KidzNTr9j0mLhtTO-7" value="" style="endArrow=none;html=1;rounded=0;entryX=1;entryY=0.5;entryDx=0;entryDy=0;entryPerimeter=0;exitDx=0;exitDy=0;exitPerimeter=0;startArrow=none;" edge="1" parent="1" source="cpb8KidzNTr9j0mLhtTO-9" target="cpb8KidzNTr9j0mLhtTO-3">
          <mxGeometry width="50" height="50" relative="1" as="geometry">
            <mxPoint x="530" y="440" as="sourcePoint" />
            <mxPoint x="580" y="390" as="targetPoint" />
          </mxGeometry>
        </mxCell>
        <mxCell id="cpb8KidzNTr9j0mLhtTO-8" value="" style="endArrow=none;html=1;rounded=0;exitX=0.4;exitY=0.6;exitDx=0;exitDy=0;exitPerimeter=0;entryX=0;entryY=0.835;entryDx=0;entryDy=0;entryPerimeter=0;" edge="1" parent="1" source="cpb8KidzNTr9j0mLhtTO-9" target="cpb8KidzNTr9j0mLhtTO-1">
          <mxGeometry width="50" height="50" relative="1" as="geometry">
            <mxPoint x="210" y="305" as="sourcePoint" />
            <mxPoint x="270" y="305" as="targetPoint" />
            <Array as="points">
              <mxPoint x="240" y="290" />
              <mxPoint x="240" y="305" />
            </Array>
          </mxGeometry>
        </mxCell>
        <mxCell id="cpb8KidzNTr9j0mLhtTO-10" value="" style="endArrow=none;html=1;rounded=0;entryDx=0;entryDy=0;entryPerimeter=0;exitX=0;exitY=0.5;exitDx=0;exitDy=0;exitPerimeter=0;" edge="1" parent="1" source="cpb8KidzNTr9j0mLhtTO-2" target="cpb8KidzNTr9j0mLhtTO-9">
          <mxGeometry width="50" height="50" relative="1" as="geometry">
            <mxPoint x="210" y="310" as="sourcePoint" />
            <mxPoint x="210" y="220" as="targetPoint" />
          </mxGeometry>
        </mxCell>
        <mxCell id="cpb8KidzNTr9j0mLhtTO-9" value="" style="shape=waypoint;sketch=0;fillStyle=solid;size=6;pointerEvents=1;points=[];fillColor=none;resizable=0;rotatable=0;perimeter=centerPerimeter;snapToPoint=1;" vertex="1" parent="1">
          <mxGeometry x="200" y="280" width="20" height="20" as="geometry" />
        </mxCell>
        <mxCell id="cpb8KidzNTr9j0mLhtTO-11" value="" style="endArrow=none;html=1;rounded=0;entryX=0;entryY=0.165;entryDx=0;entryDy=0;entryPerimeter=0;" edge="1" parent="1" target="cpb8KidzNTr9j0mLhtTO-1">
          <mxGeometry width="50" height="50" relative="1" as="geometry">
            <mxPoint x="70" y="245" as="sourcePoint" />
            <mxPoint x="580" y="390" as="targetPoint" />
          </mxGeometry>
        </mxCell>
        <mxCell id="cpb8KidzNTr9j0mLhtTO-12" value="V&lt;sub&gt;ss&lt;/sub&gt;" style="pointerEvents=1;verticalLabelPosition=bottom;shadow=0;dashed=0;align=center;html=1;verticalAlign=top;shape=mxgraph.electrical.signal_sources.vss2;fontSize=24;flipV=1;" vertex="1" parent="1">
          <mxGeometry x="40" y="360" width="60" height="40" as="geometry" />
        </mxCell>
        <mxCell id="cpb8KidzNTr9j0mLhtTO-13" value="GPIO" style="endArrow=classic;html=1;rounded=0;" edge="1" parent="1">
          <mxGeometry y="-30" width="50" height="50" relative="1" as="geometry">
            <mxPoint x="70" y="250" as="sourcePoint" />
            <mxPoint x="70" y="350" as="targetPoint" />
            <Array as="points" />
            <mxPoint as="offset" />
          </mxGeometry>
        </mxCell>
        <mxCell id="cpb8KidzNTr9j0mLhtTO-14" value="" style="endArrow=none;html=1;rounded=0;" edge="1" parent="1">
          <mxGeometry width="50" height="50" relative="1" as="geometry">
            <mxPoint x="90" y="310" as="sourcePoint" />
            <mxPoint x="150" y="310" as="targetPoint" />
            <Array as="points">
              <mxPoint x="90" y="280" />
              <mxPoint x="110" y="280" />
              <mxPoint x="110" y="310" />
              <mxPoint x="130" y="310" />
              <mxPoint x="130" y="280" />
              <mxPoint x="150" y="280" />
            </Array>
          </mxGeometry>
        </mxCell>
        <mxCell id="cpb8KidzNTr9j0mLhtTO-15" value="" style="endArrow=none;html=1;rounded=0;exitX=0.5;exitY=1;exitDx=0;exitDy=0;exitPerimeter=0;entryX=0.612;entryY=0.89;entryDx=0;entryDy=0;entryPerimeter=0;" edge="1" parent="1" source="cpb8KidzNTr9j0mLhtTO-5" target="cpb8KidzNTr9j0mLhtTO-1">
          <mxGeometry width="50" height="50" relative="1" as="geometry">
            <mxPoint x="530" y="440" as="sourcePoint" />
            <mxPoint x="580" y="390" as="targetPoint" />
            <Array as="points">
              <mxPoint x="340" y="440" />
            </Array>
          </mxGeometry>
        </mxCell>
        <mxCell id="cpb8KidzNTr9j0mLhtTO-16" value="" style="endArrow=none;html=1;rounded=0;entryX=0.5;entryY=0;entryDx=0;entryDy=0;entryPerimeter=0;exitX=0;exitY=0.5;exitDx=0;exitDy=0;exitPerimeter=0;" edge="1" parent="1" source="cpb8KidzNTr9j0mLhtTO-3" target="cpb8KidzNTr9j0mLhtTO-4">
          <mxGeometry width="50" height="50" relative="1" as="geometry">
            <mxPoint x="520" y="270" as="sourcePoint" />
            <mxPoint x="570" y="220" as="targetPoint" />
            <Array as="points">
              <mxPoint x="210" y="100" />
            </Array>
          </mxGeometry>
        </mxCell>
        <mxCell id="cpb8KidzNTr9j0mLhtTO-17" value="" style="pointerEvents=1;verticalLabelPosition=bottom;shadow=0;dashed=0;align=center;html=1;verticalAlign=top;shape=mxgraph.electrical.electro-mechanical.relay_coil;" vertex="1" parent="1">
          <mxGeometry x="480" y="325" width="70" height="35" as="geometry" />
        </mxCell>
        <mxCell id="cpb8KidzNTr9j0mLhtTO-18" value="" style="endArrow=none;html=1;rounded=0;entryX=0.5;entryY=0;entryDx=0;entryDy=0;entryPerimeter=0;exitX=0.612;exitY=0.11;exitDx=0;exitDy=0;exitPerimeter=0;" edge="1" parent="1" source="cpb8KidzNTr9j0mLhtTO-1" target="cpb8KidzNTr9j0mLhtTO-4">
          <mxGeometry width="50" height="50" relative="1" as="geometry">
            <mxPoint x="520" y="270" as="sourcePoint" />
            <mxPoint x="570" y="220" as="targetPoint" />
            <Array as="points">
              <mxPoint x="340" y="100" />
            </Array>
          </mxGeometry>
        </mxCell>
        <mxCell id="cpb8KidzNTr9j0mLhtTO-19" value="" style="pointerEvents=1;fillColor=strokeColor;verticalLabelPosition=bottom;shadow=0;dashed=0;align=center;html=1;verticalAlign=top;shape=mxgraph.electrical.diodes.diode;rotation=-90;" vertex="1" parent="1">
          <mxGeometry x="370" y="320" width="100" height="60" as="geometry" />
        </mxCell>
        <mxCell id="cpb8KidzNTr9j0mLhtTO-20" value="" style="endArrow=none;html=1;rounded=0;exitX=1;exitY=0.5;exitDx=0;exitDy=0;exitPerimeter=0;entryX=1;entryY=0.5;entryDx=0;entryDy=0;entryPerimeter=0;" edge="1" parent="1" source="cpb8KidzNTr9j0mLhtTO-1" target="cpb8KidzNTr9j0mLhtTO-19">
          <mxGeometry width="50" height="50" relative="1" as="geometry">
            <mxPoint x="520" y="270" as="sourcePoint" />
            <mxPoint x="570" y="220" as="targetPoint" />
            <Array as="points">
              <mxPoint x="420" y="275" />
            </Array>
          </mxGeometry>
        </mxCell>
        <mxCell id="cpb8KidzNTr9j0mLhtTO-21" value="" style="endArrow=none;html=1;rounded=0;entryX=0.5;entryY=0;entryDx=0;entryDy=0;entryPerimeter=0;exitX=1;exitY=0.5;exitDx=0;exitDy=0;exitPerimeter=0;" edge="1" parent="1" source="cpb8KidzNTr9j0mLhtTO-1" target="cpb8KidzNTr9j0mLhtTO-17">
          <mxGeometry width="50" height="50" relative="1" as="geometry">
            <mxPoint x="420" y="280" as="sourcePoint" />
            <mxPoint x="570" y="220" as="targetPoint" />
            <Array as="points">
              <mxPoint x="515" y="275" />
            </Array>
          </mxGeometry>
        </mxCell>
        <mxCell id="cpb8KidzNTr9j0mLhtTO-22" value="" style="endArrow=none;html=1;rounded=0;exitX=0.5;exitY=1;exitDx=0;exitDy=0;exitPerimeter=0;" edge="1" parent="1" source="cpb8KidzNTr9j0mLhtTO-17">
          <mxGeometry width="50" height="50" relative="1" as="geometry">
            <mxPoint x="520" y="270" as="sourcePoint" />
            <mxPoint x="340" y="440" as="targetPoint" />
            <Array as="points">
              <mxPoint x="515" y="440" />
            </Array>
          </mxGeometry>
        </mxCell>
        <mxCell id="cpb8KidzNTr9j0mLhtTO-23" value="" style="endArrow=none;html=1;rounded=0;exitX=0;exitY=0.5;exitDx=0;exitDy=0;exitPerimeter=0;" edge="1" parent="1" source="cpb8KidzNTr9j0mLhtTO-19">
          <mxGeometry width="50" height="50" relative="1" as="geometry">
            <mxPoint x="520" y="270" as="sourcePoint" />
            <mxPoint x="420" y="440" as="targetPoint" />
          </mxGeometry>
        </mxCell>
        <mxCell id="cpb8KidzNTr9j0mLhtTO-24" value="3,3V" style="text;html=1;strokeColor=none;fillColor=none;align=center;verticalAlign=middle;whiteSpace=wrap;rounded=0;" vertex="1" parent="1">
          <mxGeometry x="270" y="20" width="60" height="30" as="geometry" />
        </mxCell>
      </root>
    </mxGraphModel>
  </diagram>
</mxfile>
